<svg xmlns="http://www.w3.org/2000/svg" viewBox="0 0 4605.7 2723.6">
  <path d="M2246 2723.1a2591.3 2591.3 0 0 1-591.4-83.5 2159.7 2159.7 0 0 1-516.8-208.3A1728.5 1728.5 0 0 1 679.1 2060c-55.6-63.6-86-106.3-101-141.4a93 93 0 0 1-9-35.5c-1.2-22.7 6-36.6 23.6-45.2 6.3-3.2 7-3.3 18.6-3.3a51 51 0 0 1 19 2.3c20.3 6.6 46.1 22.7 79.5 49.4a2069.6 2069.6 0 0 0 372.5 240.3c147.7 74.5 292.3 128.2 473.7 176a3157 3157 0 0 0 627.8 98.4c72.8 4.1 93.8 4.6 189.5 4.6 105.9 0 154.2-1.5 242-7.5 361.5-24.8 718.7-108.9 984.8-231.8a2156 2156 0 0 0 63-31c45.1-22.7 57-28.2 75.7-35 26.3-9.4 44.4-6.3 59.7 10.2a50.4 50.4 0 0 1 14.8 38.5c-5.1 41.5-59 100.4-163.7 179.3-249.6 188-594.4 319.3-974.8 371.2a2718 2718 0 0 1-263.5 22.6 3806 3806 0 0 1-165.4 1zm1615-239.4a51.1 51.1 0 0 1-26.8-24c-7.7-16.8-5.3-31.5 10.4-64.1a572 572 0 0 1 31.9-56.5c41.2-68.3 82.6-159.4 102.1-224.6 19.6-65.4 22-102.6 8-123.8-12-18.2-50.5-29.6-113.2-33.7-24.5-1.6-103.2-.6-126.7 1.5-52.5 4.9-89 10.2-138 20.1-35 7.1-41.8 8-66.5 8-23.9 0-28.8-.7-38.5-5.5a41 41 0 0 1-21-41.6c2.5-13.7 11.4-26.6 27.8-40.3 41.9-35 107.4-69 178.7-92.6a654.9 654.9 0 0 1 232.5-33.3 596 596 0 0 1 133 19.4c71.2 18.4 114.3 42 129.3 71 11.5 22.3 15.8 44.9 15.7 83.6a617 617 0 0 1-33.6 195.2 608 608 0 0 1-156.5 249.2c-53 52.3-89.7 80-119.5 90a57.3 57.3 0 0 1-29 2zm-3838.6-729a39.2 39.2 0 0 1-19.9-17.9l-2.3-4.2-.2-656.5c-.2-594.8-.1-657 1.3-661.9 2-6.9 10.3-16 18.3-19.8l5.6-2.8h181l4.7 2.2a34.4 34.4 0 0 1 16.7 17.1c3.6 7.7 4.7 12.9 19.3 84.5l10.3 50.7h10l4.5-9.7a318.5 318.5 0 0 1 38.7-63.3 322.1 322.1 0 0 1 65.6-59.3 278.7 278.7 0 0 1 218.2-40.6c76.2 16.7 145 67.4 195 143.7 48.3 73.8 82.2 179.6 93 290.7 3.2 33 3.7 42.2 4.2 89.7a905 905 0 0 1-6.7 140.3c-16 127.7-59.3 238.2-122 311a470.3 470.3 0 0 1-46 44.7 285.6 285.6 0 0 1-137 60c-19.6 3-66.8 3.3-85.5.5-72.7-10.9-127.5-44.7-175.8-108.5a491.5 491.5 0 0 1-36-56.4c-2.7-4.7-2.8-4.8-7.7-4.8h-5l-.2 224.3-.3 224.2-3 5.3a40.6 40.6 0 0 1-18.1 16.6c-4.2 1.4-16 1.6-110.8 1.6-86.6 0-106.8-.3-109.9-1.4zM466 1231c38-7.3 68.2-28.8 92-65.5 30-46 47.6-113 52.9-201.8 1.6-26.5.7-105.1-1.5-127.7-4.6-48-12.1-87-23-118.7-25.2-73.5-64.5-114.7-120.4-126a222 222 0 0 0-57.3 0c-45.8 9.2-80.6 38.3-106.3 88.7a346 346 0 0 0-31 94c-12.9 65.2-15.2 163.8-5.5 239.4 8.2 64.1 25.4 116.1 50.7 153.6 27 39.7 60.5 60.9 104.7 66 10.8 1.3 32.9.3 44.7-2zm3677.3 224.4-15.5-1.5a408 408 0 0 1-207.3-78.7 477 477 0 0 1-78.6-75.9c-64-80.8-103.7-183.6-115.5-299.8-3.1-30.9-3.8-50-3.3-92.7a661 661 0 0 1 10.3-120.8c37.3-212.7 172.2-371.6 348-409.8 32.2-7 57.7-9.6 94.4-9.6a382 382 0 0 1 144.5 26.1 505.2 505.2 0 0 1 51.3 24.9 426.6 426.6 0 0 1 135 127.6 588 588 0 0 1 85.6 210.8c10.3 51.4 14 96.8 13.5 167-.3 42.6-.4 43.6-2.6 47.6a31.6 31.6 0 0 1-22.1 17c-4.6 1.1-57.6 1.4-293.5 1.4h-287.8l.6 6.8c8 86.2 23.8 142.4 51.7 184.1 23.3 35 51.9 55 90 63.2 12.2 2.6 41.2 3.6 55.8 2 39.6-4.6 68.5-18 92.6-43.3 19.4-20.3 32.7-45.7 42.3-80.8 4.9-18 6-20.7 10.8-26 5.2-5.8 11-8.3 19.3-8.3 9 0 197.8 42.2 205.6 45.9a24 24 0 0 1 14 25.3c-2 15.6-24.8 68.7-42.6 99.7a387 387 0 0 1-161.5 154.2 437.6 437.6 0 0 1-148.5 41.8c-13.6 1.5-76 2.8-86.5 1.8zm192.1-648.6c-1.3-14-5.7-42.5-9.1-59.7-16.1-79.3-48.4-134.1-92.4-157a133.2 133.2 0 0 0-117.6-.3 133 133 0 0 0-37.5 28.2 173.4 173.4 0 0 0-32.7 43.2c-19 34.3-33.3 80.5-41.2 133.8-1.1 7.4-2 14.7-2 16.3v2.7H4336l-.7-7.2zm-3283 621.4a39 39 0 0 1-18-18.8c-1.4-4.3-1.6-47.8-1.6-499.4 0-447.5.2-495 1.6-499.3a29.4 29.4 0 0 1 15.6-16.3l6.3-2.9 87.5-.3c91-.3 95.3-.2 103.1 3.8 5.5 2.8 12.4 11 14.8 17.7 1.2 3.2 7.8 33.5 14.6 67.3l13 63.8c.6 2 1 2.3 5.6 2l5-.3 5.3-12a330.4 330.4 0 0 1 42.2-71.5c9.5-11.9 30-32 42-41.1 46.7-35.6 96.4-52 158.3-51.9 42 0 79 7.2 113 21.8 11.2 4.8 17.3 9.7 21 16.5 2.4 4.8 2.6 6.1 2.6 16.2 0 11-.1 11.3-24.8 111-13.6 55-25.5 102-26.3 104.2-2 5.2-7.2 10.8-12.2 13a31 31 0 0 1-11.2 1.6c-8.5 0-9.2-.2-43.7-14.2-36.1-14.7-63.3-23.2-84.3-26.2a267.2 267.2 0 0 0-55 .4 142 142 0 0 0-51.7 18.9c-12 7.4-30.7 26-39.5 39.3-24.3 36.9-35.3 79.5-37.8 145.5-.5 13.5-.9 151.7-1 307 0 312.7.6 286.5-6.4 296.1a23.8 23.8 0 0 1-9.2 7.5l-5.9 2.9-108.5.3-108.5.2zm745 1.4c-9.8-3-16.1-9-19.3-18-1.7-4.9-1.8-27.7-1.8-501.1v-496l2.6-5.5c3.3-7 8-11.5 15-14.9l5.4-2.6 105.5-.3c109.3-.3 114.3-.1 122 3.8a30 30 0 0 1 11.8 12.8c1.7 3.5 1.8 30 2 500.7.2 453.3.1 497.4-1.3 502.5a23 23 0 0 1-7.3 11.1c-9.5 9.5-.6 9-123.6 8.8-83.4 0-108-.3-111-1.3zm449.3 0c-8.3-3-15.6-9.5-20-17.8l-2.4-4.3v-994l2.4-5.3a28.2 28.2 0 0 1 15.1-14.1l5.5-2.6h91c84.7 0 91.4.1 95.6 1.8a32 32 0 0 1 19 19.5c1.7 4.6 10.5 46.2 27 128l1 5.2h10.5l3.5-8.8a413.7 413.7 0 0 1 25.1-49.7c40.4-64.6 98.8-104.9 169.8-117 47.2-8.1 99.7-4.2 142.8 10.6 56.5 19.4 103.7 58 138.5 113.4a431.7 431.7 0 0 1 23.4 44.8l2.9 6.7h10l8-12.2c35.9-55 80.4-100.5 124.5-127.2a295 295 0 0 1 194.4-37 258.8 258.8 0 0 1 171.2 103c12 16 21.3 31.3 31.4 51.9 25.9 52.6 42 112.8 48.5 181.7 3.4 35.7 3.7 63.6 3.3 384.3l-.3 317-2.6 5.5a27.7 27.7 0 0 1-14.1 15.1l-5.3 2.4h-219l-4.3-2.3a41.3 41.3 0 0 1-15.7-15.4l-3-5.3-.5-320c-.6-340.2-.4-324.1-5-351-9.7-57.3-35.1-97.2-73.5-115.6-19-9.1-37.6-12.5-63.8-11.6-37 1.3-64.6 12.7-88.1 36.2-28.2 28.1-44.5 69.5-52.3 132.5-1.5 12.3-1.7 42-2.2 321.5l-.6 308-2.6 5.5a27.7 27.7 0 0 1-14.1 15.1l-5.3 2.4h-219l-5.2-3a40.5 40.5 0 0 1-15.4-15.6l-2.4-4.4-.5-320c-.6-340.2-.4-324.1-5-351-9.7-57.3-35.1-97.2-73.5-115.6-19-9.1-37.6-12.5-63.8-11.6-37 1.3-64.6 12.7-88.1 36.2-28.2 28.1-44.5 69.5-52.3 132.5-1.5 12.3-1.7 42-2.2 321.5l-.6 308-2.6 5.5a27.7 27.7 0 0 1-14.1 15.1l-5.3 2.4-108 .2c-86.6.2-108.7 0-111.6-1zM1887.8 309a154 154 0 0 1-94-46.7 139.7 139.7 0 0 1-37-72c-3-15-3.8-44-1.6-60.8 6-45 26.5-79 62.3-103C1869-8 1944.5-9 1995.4 24.2a154 154 0 0 1 48.3 49.5c21.5 36.4 26 93 11.1 137.5a147.5 147.5 0 0 1-85.6 88c-23.8 9.2-54 12.9-81.4 9.8z" fill="#0779ff"/>
</svg>
